HIERARCHY
ROOT SpineBase
{
  OFFSET 0.000000 0.000000 0.000000
  CHANNELS 6 Xposition Yposition Zposition Zrotation Xrotation Yrotation
  JOINT SpineMid
  {
    OFFSET -0.000000 29.622991 0.000000
    CHANNELS 3 Zrotation Xrotation Yrotation
    JOINT SpineShoulder
    {
      OFFSET -0.201542 21.972052 -0.896266
      CHANNELS 3 Zrotation Xrotation Yrotation
      JOINT Neck
      {
        OFFSET -0.128924 7.313468 -0.661960
        CHANNELS 3 Zrotation Xrotation Yrotation
        JOINT Head
        {
          OFFSET -3.275913 15.407692 0.090575
          CHANNELS 3 Zrotation Xrotation Yrotation
          End Site
          {
            OFFSET 0 0 0
          }
        }
      }
      JOINT ShoulderLeft
      {
        OFFSET -16.109044 -4.227472 6.337727
        CHANNELS 3 Zrotation Xrotation Yrotation
        JOINT ElbowLeft
        {
          OFFSET -1.304540 -25.040380 2.729649
          CHANNELS 3 Zrotation Xrotation Yrotation
          JOINT WristLeft
          {
            OFFSET 0.738867 -22.807953 -5.844125
            CHANNELS 3 Zrotation Xrotation Yrotation
            JOINT HandLeft
            {
              OFFSET 2.818107 -2.429303 -2.681555
              CHANNELS 3 Zrotation Xrotation Yrotation
              JOINT HandTipLeft
              {
                OFFSET 1.928296 -5.461214 -2.717041
                CHANNELS 3 Zrotation Xrotation Yrotation
                End Site
                {
                  OFFSET 0 0 0
                }
              }
              JOINT ThumbLeft
              {
                OFFSET -0.883408 -0.390364 -0.656143
                CHANNELS 3 Zrotation Xrotation Yrotation
                End Site
                {
                  OFFSET 0 0 0
                }
              }
            }
          }
        }
      }
      JOINT ShoulderRight
      {
        OFFSET 14.736828 -3.674061 -8.640810
        CHANNELS 3 Zrotation Xrotation Yrotation
        JOINT ElbowRight
        {
          OFFSET 3.577602 -25.794066 -3.895884
          CHANNELS 3 Zrotation Xrotation Yrotation
          JOINT WristRight
          {
            OFFSET -4.501134 -24.891735 -7.661964
            CHANNELS 3 Zrotation Xrotation Yrotation
            JOINT HandRight
            {
              OFFSET -2.752255 -6.125966 -2.410591
              CHANNELS 3 Zrotation Xrotation Yrotation
              JOINT HandTipRight
              {
                OFFSET -2.030168 -7.811200 -3.038252
                CHANNELS 3 Zrotation Xrotation Yrotation
                End Site
                {
                  OFFSET 0 0 0
                }
              }
              JOINT ThumbRight
              {
                OFFSET 5.178332 0.775643 0.067541
                CHANNELS 3 Zrotation Xrotation Yrotation
                End Site
                {
                  OFFSET 0 0 0
                }
              }
            }
          }
        }
      }
    }
  }
  JOINT HipLeft
  {
    OFFSET -6.807858 -0.015818 -0.940908
    CHANNELS 3 Zrotation Xrotation Yrotation
    JOINT KneeLeft
    {
      OFFSET 2.713264 -33.504478 5.076065
      CHANNELS 3 Zrotation Xrotation Yrotation
      JOINT AnkleLeft
      {
        OFFSET 7.757430 -34.074012 10.268892
        CHANNELS 3 Zrotation Xrotation Yrotation
        JOINT FootLeft
        {
          OFFSET -4.163807 -6.656823 0.725394
          CHANNELS 3 Zrotation Xrotation Yrotation
          End Site
          {
            OFFSET 0 0 0
          }
        }
      }
    }
  }
  JOINT HipRight
  {
    OFFSET 6.360341 2.139432 -6.114583
    CHANNELS 3 Zrotation Xrotation Yrotation
    JOINT KneeRight
    {
      OFFSET 4.313919 -31.714756 -2.190582
      CHANNELS 3 Zrotation Xrotation Yrotation
      JOINT AnkleRight
      {
        OFFSET 4.706286 -35.091583 14.861986
        CHANNELS 3 Zrotation Xrotation Yrotation
        JOINT FootRight
        {
          OFFSET -4.109750 -5.587962 -4.231004
          CHANNELS 3 Zrotation Xrotation Yrotation
          End Site
          {
            OFFSET 0 0 0
          }
        }
      }
    }
  }
}
MOTION
Frames: 11
Frame Time: 0.033333
22.476639 72.229063 316.698508 4.696836 -7.351579 -2.361196 -0.228012 -0.038528 2.792187 -0.257206 0.436415 0.142368 -8.035468 -3.897472 -2.207424 0.000000 0.000000 0.000000 -43.189312 36.039640 9.648978 82.263373 -35.406573 29.762691 -38.952685 -21.186143 -38.436207 -17.953256 16.102345 59.315251 0.000000 0.000000 0.000000 0.000000 0.000000 0.000000 53.410774 -3.697400 -12.037324 -72.671216 50.330944 7.643149 5.279434 0.210306 -11.770740 -31.704288 1.146098 4.329741 0.000000 0.000000 0.000000 0.000000 0.000000 0.000000 -12.976665 21.855047 5.211474 -0.444163 -17.185419 -3.908703 30.493252 50.457539 -44.345152 0.000000 0.000000 0.000000 -4.797778 3.479737 2.453543 -3.738315 2.160839 -1.058670 28.248586 26.094323 -39.834539 0.000000 0.000000 0.000000
22.582530 72.488592 315.489628 6.066308 -8.563970 -7.094869 -0.176034 0.012716 7.720643 -0.255288 0.454192 0.198675 -10.938869 -3.495472 -2.216448 0.000000 0.000000 0.000000 -55.648771 45.798119 18.246300 102.275180 -39.302419 47.888488 -44.439163 -19.077271 -34.662130 -16.630462 24.402488 58.974610 0.000000 0.000000 0.000000 0.000000 0.000000 0.000000 61.478105 -5.145457 -14.194451 -100.058841 61.274874 19.221600 4.994909 -2.169829 -12.960348 -32.465568 -1.599842 2.339207 0.000000 0.000000 0.000000 0.000000 0.000000 0.000000 -16.910458 21.653459 10.694986 -2.361765 -15.465044 -4.653261 24.358373 44.473528 -33.738324 0.000000 0.000000 0.000000 -6.379558 3.959334 7.418533 -3.944161 2.400577 -1.001693 30.662725 24.256374 -41.492611 0.000000 0.000000 0.000000
22.529416 72.838199 313.789461 7.714669 -10.224466 -11.981433 -0.187008 0.112550 12.889083 -0.295023 0.462555 0.262365 -13.317280 -2.185152 -1.982544 0.000000 0.000000 0.000000 -72.287306 52.386318 30.604654 114.404600 -39.968702 60.689090 -47.413842 -19.645995 -32.234797 -29.165155 29.731185 75.100085 0.000000 0.000000 0.000000 0.000000 0.000000 0.000000 67.758657 -6.349301 -16.535222 -138.356787 65.493107 41.982559 5.954984 -4.502998 -13.405349 -34.236212 -4.744526 -0.454022 0.000000 0.000000 0.000000 0.000000 0.000000 0.000000 -21.226031 21.147944 16.429856 -4.175351 -14.052922 -5.373509 17.177902 39.931753 -25.753149 0.000000 0.000000 0.000000 -9.292528 3.988500 12.782458 -2.511028 2.146700 -0.860046 34.194625 22.617106 -45.498606 0.000000 0.000000 0.000000
22.083470 73.393224 311.469780 9.114204 -11.743889 -15.293290 -0.230511 0.204333 16.483665 -0.354168 0.424336 0.317888 -14.572796 -0.193771 -1.552675 0.000000 0.000000 0.000000 -86.102502 56.200217 42.418523 122.874246 -40.814577 70.903546 -47.572966 -18.699831 -30.531655 -21.779832 -2.030312 80.167551 0.000000 0.000000 0.000000 0.000000 0.000000 0.000000 73.811215 -7.599232 -18.826792 -175.615773 60.055523 62.094460 2.592347 -3.472783 -15.612335 -29.245115 -9.749176 -2.331331 0.000000 0.000000 0.000000 0.000000 0.000000 0.000000 -23.125679 19.118365 19.866505 -6.537872 -10.893282 -5.717701 12.875517 36.728298 -21.262698 0.000000 0.000000 0.000000 -12.539093 3.064355 16.637544 0.868533 2.080698 -0.410355 35.710616 21.183127 -48.983592 0.000000 0.000000 0.000000
21.173909 73.731372 308.919667 10.685184 -13.077245 -18.068061 -0.317739 0.179478 19.600015 -0.388315 0.305373 0.385091 -16.393470 1.210066 -1.189875 0.000000 0.000000 0.000000 -97.548708 59.517684 53.875801 131.514199 -40.791524 81.632496 -44.505411 -13.681799 -25.882018 -3.781312 -10.849617 53.637274 0.000000 0.000000 0.000000 0.000000 0.000000 0.000000 78.323285 -12.052555 -18.705572 160.821085 47.529189 69.475721 -13.831563 -11.822518 -24.582172 -10.769118 0.597025 8.808012 0.000000 0.000000 0.000000 0.000000 0.000000 0.000000 -24.794833 16.735504 22.631569 -8.532014 -8.111469 -5.868335 14.552650 35.792948 -20.366574 0.000000 0.000000 0.000000 -14.900779 1.683479 19.775723 2.981435 2.450585 -0.023660 37.024991 19.853707 -51.778840 0.000000 0.000000 0.000000
21.145189 74.670191 305.828243 11.809720 -13.923789 -21.208759 -0.428361 0.136931 23.001916 -0.425018 0.153955 0.438969 -12.631360 2.045049 -1.656199 0.000000 0.000000 0.000000 -106.392844 58.052869 59.757934 133.686568 -39.481046 82.167988 -41.834158 -10.443310 -19.264043 4.622748 -3.876045 30.942184 0.000000 0.000000 0.000000 0.000000 0.000000 0.000000 82.742922 -9.713431 -22.805475 151.921438 33.854682 58.254751 -33.093640 -31.432770 -43.720366 -3.623559 32.042697 29.095440 0.000000 0.000000 0.000000 0.000000 0.000000 0.000000 -27.637111 12.102044 25.221876 -5.942134 -5.666296 -4.502055 14.445848 39.347026 -22.936505 0.000000 0.000000 0.000000 -19.806839 -0.649452 23.645028 8.587920 1.438035 -0.105030 37.479321 19.197032 -54.457910 0.000000 0.000000 0.000000
20.603452 75.216255 302.865615 12.643177 -14.333016 -20.309782 -0.552868 0.099333 22.290852 -0.464764 -0.027875 0.485283 -8.375743 2.084623 -2.389609 0.000000 0.000000 0.000000 -112.246226 55.188036 61.879046 136.013163 -36.173562 79.829215 -40.634560 -8.524640 -17.113945 7.511902 5.695350 24.724256 0.000000 0.000000 0.000000 0.000000 0.000000 0.000000 87.115764 -4.116977 -29.409053 145.009059 21.075684 41.678289 -18.172337 -54.020341 -49.373682 -24.270519 29.429854 36.126012 0.000000 0.000000 0.000000 0.000000 0.000000 0.000000 -24.849462 10.995265 24.035618 -10.870720 -2.117026 -4.950041 14.035520 45.440564 -25.950222 0.000000 0.000000 0.000000 -24.512362 -2.059125 23.473471 14.162323 0.598649 -0.250023 36.047358 19.843096 -55.003604 0.000000 0.000000 0.000000
18.643210 75.869608 299.196091 13.465379 -14.917488 -19.676686 -0.590980 -0.017073 21.876906 -0.625257 0.063502 0.515249 -4.360477 3.263218 -2.949181 0.000000 0.000000 0.000000 -113.100297 48.937452 56.287953 136.087368 -29.043180 68.046785 -37.163611 -7.153563 -23.071232 2.808834 0.767749 31.779547 0.000000 0.000000 0.000000 0.000000 0.000000 0.000000 92.720490 3.362317 -38.775111 142.057285 13.351178 21.257871 -4.270602 -55.660885 -45.174257 -25.027252 17.730129 30.258380 0.000000 0.000000 0.000000 0.000000 0.000000 0.000000 -19.346584 10.702711 23.191616 -16.664280 0.692209 -5.112954 7.753633 49.315310 -25.370728 0.000000 0.000000 0.000000 -25.926473 -3.396604 22.987525 16.574176 1.066034 -0.095835 33.634440 21.402556 -54.463040 0.000000 0.000000 0.000000
17.225462 76.981182 296.198700 13.867987 -15.301744 -17.513878 -0.557401 -0.113890 19.841989 -0.625276 0.038086 0.533928 2.620515 3.744097 -4.169208 0.000000 0.000000 0.000000 -110.218689 42.448100 47.748487 134.898870 -23.486904 54.719287 -37.244777 -7.348382 -22.307545 1.180323 -3.334104 31.880537 0.000000 0.000000 0.000000 0.000000 0.000000 0.000000 94.738856 17.398787 -51.454339 146.715131 14.679097 3.508251 8.795874 -45.062004 -31.666467 -13.462296 15.371051 16.511035 0.000000 0.000000 0.000000 0.000000 0.000000 0.000000 -10.169716 12.032718 20.611098 -23.772169 1.648624 -5.564311 7.692216 53.183519 -27.434587 0.000000 0.000000 0.000000 -26.896325 -3.924012 21.016495 18.689771 1.626496 -0.021533 30.165347 23.710251 -52.621455 0.000000 0.000000 0.000000
16.098367 77.655572 293.252124 14.654251 -15.516523 -2.430022 -0.576152 -0.097311 4.940234 -0.686549 0.036009 0.572164 7.289604 5.467765 -5.049709 0.000000 0.000000 0.000000 -105.717113 35.129152 37.734992 132.254713 -18.800498 39.799132 -38.532663 -9.235708 -20.682008 0.411194 -6.308381 30.502359 0.000000 0.000000 0.000000 0.000000 0.000000 0.000000 100.712613 44.646801 -75.891833 169.136757 28.812731 -19.710668 12.146764 -36.662352 -23.522622 -3.605019 24.922026 12.566887 0.000000 0.000000 0.000000 0.000000 0.000000 0.000000 1.789988 16.046946 4.401850 -30.567507 -1.122319 -7.291481 10.889996 57.144945 -31.990464 0.000000 0.000000 0.000000 -26.987531 -1.521182 6.618737 18.768805 5.560583 -0.327302 26.517118 26.502553 -49.452854 0.000000 0.000000 0.000000
14.116015 78.542539 290.760276 15.354303 -16.253686 -2.557643 -0.697809 0.060270 5.281331 -0.779763 0.050341 0.600626 11.615468 6.516756 -6.068274 0.000000 0.000000 0.000000 -102.320262 27.297394 29.276243 129.823058 -14.175411 25.473124 -40.770209 -12.554438 -18.561834 0.678244 -7.613096 27.607308 0.000000 0.000000 0.000000 0.000000 0.000000 0.000000 110.415882 69.134654 -101.168115 -166.025078 26.243749 -47.776995 15.125588 -23.448836 -10.228421 0.745051 30.290834 13.217776 0.000000 0.000000 0.000000 0.000000 0.000000 0.000000 10.941737 15.048691 3.592378 -35.785521 -3.958534 -7.653473 21.630095 65.154693 -46.143381 0.000000 0.000000 0.000000 -27.698478 -0.324213 7.394083 20.291016 3.363617 0.051787 22.623939 28.965117 -47.570953 0.000000 0.000000 0.000000
